ply
format ascii 1.0
comment VCGLIB generated
element vertex 128
property float x
property float y
property float z
property float nx
property float ny
property float nz
property float texture_u
property float texture_v
element face 62
property list uchar int vertex_indices
end_header
0 -1 1 -0.087754 0.4454879 0.8909769 0.000000 -1.000000
0 1 0 -0.087754 0.4454879 0.8909769 0.000000 1.000000
-0.19509 -1 0.980785 -0.087754 0.4454879 0.8909769 -0.195090 -1.000000
-0.19509 -1 0.980785 -0.2598881 0.4454881 0.8567372 -0.195090 -1.000000
0 1 0 -0.2598881 0.4454881 0.8567372 0.000000 1.000000
-0.382683 -1 0.92388 -0.2598881 0.4454881 0.8567372 -0.382683 -1.000000
-0.382683 -1 0.92388 -0.4220361 0.4454881 0.7895732 -0.382683 -1.000000
0 1 0 -0.4220361 0.4454881 0.7895732 0.000000 1.000000
-0.55557 -1 0.83147 -0.4220361 0.4454881 0.7895732 -0.555570 -1.000000
-0.55557 -1 0.83147 -0.5679649 0.4454879 0.6920668 -0.555570 -1.000000
0 1 0 -0.5679649 0.4454879 0.6920668 0.000000 1.000000
-0.707107 -1 0.707107 -0.5679649 0.4454879 0.6920668 -0.707107 -1.000000
-0.707107 -1 0.707107 -0.6920668 0.4454879 0.5679649 -0.707107 -1.000000
0 1 0 -0.6920668 0.4454879 0.5679649 0.000000 1.000000
-0.83147 -1 0.55557 -0.6920668 0.4454879 0.5679649 -0.831470 -1.000000
-0.83147 -1 0.55557 -0.7895732 0.4454881 0.4220361 -0.831470 -1.000000
0 1 0 -0.7895732 0.4454881 0.4220361 0.000000 1.000000
-0.92388 -1 0.382683 -0.7895732 0.4454881 0.4220361 -0.923880 -1.000000
-0.92388 -1 0.382683 -0.8567372 0.4454881 0.2598881 -0.923880 -1.000000
0 1 0 -0.8567372 0.4454881 0.2598881 0.000000 1.000000
-0.980785 -1 0.19509 -0.8567372 0.4454881 0.2598881 -0.980785 -1.000000
-0.980785 -1 0.19509 -0.8909769 0.4454879 0.087754 -0.980785 -1.000000
0 1 0 -0.8909769 0.4454879 0.087754 0.000000 1.000000
-1 -1 0 -0.8909769 0.4454879 0.087754 -1.000000 -1.000000
-1 -1 0 -0.8909769 0.4454879 -0.08775299 -1.000000 -1.000000
0 1 0 -0.8909769 0.4454879 -0.08775299 0.000000 1.000000
-0.980785 -1 -0.19509 -0.8909769 0.4454879 -0.08775299 -0.980785 -1.000000
-0.980785 -1 -0.19509 -0.8567372 0.4454881 -0.2598881 -0.980785 -1.000000
0 1 0 -0.8567372 0.4454881 -0.2598881 0.000000 1.000000
-0.92388 -1 -0.382683 -0.8567372 0.4454881 -0.2598881 -0.923880 -1.000000
-0.92388 -1 -0.382683 -0.7895736 0.4454883 -0.4220353 -0.923880 -1.000000
0 1 0 -0.7895736 0.4454883 -0.4220353 0.000000 1.000000
-0.83147 -1 -0.55557 -0.7895736 0.4454883 -0.4220353 -0.831470 -1.000000
-0.83147 -1 -0.55557 -0.6920668 0.4454879 -0.5679649 -0.831470 -1.000000
0 1 0 -0.6920668 0.4454879 -0.5679649 0.000000 1.000000
-0.707107 -1 -0.707107 -0.6920668 0.4454879 -0.5679649 -0.707107 -1.000000
-0.707107 -1 -0.707107 -0.5679649 0.4454879 -0.6920668 -0.707107 -1.000000
0 1 0 -0.5679649 0.4454879 -0.6920668 0.000000 1.000000
-0.55557 -1 -0.83147 -0.5679649 0.4454879 -0.6920668 -0.555570 -1.000000
-0.55557 -1 -0.83147 -0.4220361 0.4454881 -0.7895732 -0.555570 -1.000000
0 1 0 -0.4220361 0.4454881 -0.7895732 0.000000 1.000000
-0.382683 -1 -0.92388 -0.4220361 0.4454881 -0.7895732 -0.382683 -1.000000
-0.382683 -1 -0.92388 -0.2598881 0.4454881 -0.8567372 -0.382683 -1.000000
0 1 0 -0.2598881 0.4454881 -0.8567372 0.000000 1.000000
-0.19509 -1 -0.980785 -0.2598881 0.4454881 -0.8567372 -0.195090 -1.000000
-0.19509 -1 -0.980785 -0.08775299 0.4454879 -0.8909769 -0.195090 -1.000000
0 1 0 -0.08775299 0.4454879 -0.8909769 0.000000 1.000000
0 -1 -1 -0.08775299 0.4454879 -0.8909769 0.000000 -1.000000
0 -1 -1 0.087754 0.4454879 -0.8909769 0.000000 -1.000000
0 1 0 0.087754 0.4454879 -0.8909769 0.000000 1.000000
0.195091 -1 -0.980785 0.087754 0.4454879 -0.8909769 0.195091 -1.000000
0.195091 -1 -0.980785 0.259889 0.445488 -0.856737 0.195091 -1.000000
0 1 0 0.259889 0.445488 -0.856737 0.000000 1.000000
0.382684 -1 -0.923879 0.259889 0.445488 -0.856737 0.382684 -1.000000
0.382684 -1 -0.923879 0.4220361 0.4454881 -0.7895732 0.382684 -1.000000
0 1 0 0.4220361 0.4454881 -0.7895732 0.000000 1.000000
0.555571 -1 -0.831469 0.4220361 0.4454881 -0.7895732 0.555571 -1.000000
0.555571 -1 -0.831469 0.5679652 0.4454882 -0.6920663 0.555571 -1.000000
0 1 0 0.5679652 0.4454882 -0.6920663 0.000000 1.000000
0.707107 -1 -0.707106 0.5679652 0.4454882 -0.6920663 0.707107 -1.000000
0.707107 -1 -0.707106 0.6920672 0.4454881 -0.5679642 0.707107 -1.000000
0 1 0 0.6920672 0.4454881 -0.5679642 0.000000 1.000000
0.83147 -1 -0.55557 0.6920672 0.4454881 -0.5679642 0.831470 -1.000000
0.83147 -1 -0.55557 0.7895739 0.4454879 -0.4220349 0.831470 -1.000000
0 1 0 0.7895739 0.4454879 -0.4220349 0.000000 1.000000
0.92388 -1 -0.382683 0.7895739 0.4454879 -0.4220349 0.923880 -1.000000
0.92388 -1 -0.382683 0.8567374 0.4454882 -0.2598871 0.923880 -1.000000
0 1 0 0.8567374 0.4454882 -0.2598871 0.000000 1.000000
0.980785 -1 -0.195089 0.8567374 0.4454882 -0.2598871 0.980785 -1.000000
0.980785 -1 -0.195089 0.8909769 0.4454879 -0.08775299 0.980785 -1.000000
0 1 0 0.8909769 0.4454879 -0.08775299 0.000000 1.000000
1 -1 1e-06 0.8909769 0.4454879 -0.08775299 1.000000 -1.000000
1 -1 1e-06 0.8909769 0.4454879 0.087754 1.000000 -1.000000
0 1 0 0.8909769 0.4454879 0.087754 0.000000 1.000000
0.980785 -1 0.195091 0.8909769 0.4454879 0.087754 0.980785 -1.000000
0.980785 -1 0.195091 0.856737 0.445488 0.259889 0.980785 -1.000000
0 1 0 0.856737 0.445488 0.259889 0.000000 1.000000
0.923879 -1 0.382684 0.856737 0.445488 0.259889 0.923879 -1.000000
0.923879 -1 0.382684 0.7895729 0.4454879 0.4220369 0.923879 -1.000000
0 1 0 0.7895729 0.4454879 0.4220369 0.000000 1.000000
0.831469 -1 0.555571 0.7895729 0.4454879 0.4220369 0.831469 -1.000000
0.831469 -1 0.555571 0.6920664 0.4454882 0.5679653 0.831469 -1.000000
0 1 0 0.6920664 0.4454882 0.5679653 0.000000 1.000000
0.707106 -1 0.707108 0.6920664 0.4454882 0.5679653 0.707106 -1.000000
0.707106 -1 0.707108 0.5679642 0.4454881 0.6920672 0.707106 -1.000000
0 1 0 0.5679642 0.4454881 0.6920672 0.000000 1.000000
0.555569 -1 0.83147 0.5679642 0.4454881 0.6920672 0.555569 -1.000000
0.555569 -1 0.83147 0.4220349 0.4454879 0.7895739 0.555569 -1.000000
0 1 0 0.4220349 0.4454879 0.7895739 0.000000 1.000000
0.382682 -1 0.92388 0.4220349 0.4454879 0.7895739 0.382682 -1.000000
0.382682 -1 0.92388 0.2598871 0.4454882 0.8567374 0.382682 -1.000000
0 1 0 0.2598871 0.4454882 0.8567374 0.000000 1.000000
0.195089 -1 0.980786 0.2598871 0.4454882 0.8567374 0.195089 -1.000000
0.195089 -1 0.980786 0.08775299 0.4454879 0.8909769 0.195089 -1.000000
0 1 0 0.08775299 0.4454879 0.8909769 0.000000 1.000000
0 -1 1 0.08775299 0.4454879 0.8909769 0.000000 -1.000000
0.195089 -1 0.980786 0 -1 0 0.195089 -1.000000
0 -1 1 0 -1 0 0.000000 -1.000000
-0.19509 -1 0.980785 0 -1 0 -0.195090 -1.000000
-0.382683 -1 0.92388 0 -1 0 -0.382683 -1.000000
-0.55557 -1 0.83147 0 -1 0 -0.555570 -1.000000
-0.707107 -1 0.707107 0 -1 0 -0.707107 -1.000000
-0.83147 -1 0.55557 0 -1 0 -0.831470 -1.000000
-0.92388 -1 0.382683 0 -1 0 -0.923880 -1.000000
-0.980785 -1 0.19509 0 -1 0 -0.980785 -1.000000
-1 -1 0 0 -1 0 -1.000000 -1.000000
-0.980785 -1 -0.19509 0 -1 0 -0.980785 -1.000000
-0.92388 -1 -0.382683 0 -1 0 -0.923880 -1.000000
-0.83147 -1 -0.55557 0 -1 0 -0.831470 -1.000000
-0.707107 -1 -0.707107 0 -1 0 -0.707107 -1.000000
-0.55557 -1 -0.83147 0 -1 0 -0.555570 -1.000000
-0.382683 -1 -0.92388 0 -1 0 -0.382683 -1.000000
-0.19509 -1 -0.980785 0 -1 0 -0.195090 -1.000000
0 -1 -1 -0 -1 0 0.000000 -1.000000
0.195091 -1 -0.980785 -0 -1 0 0.195091 -1.000000
0.382684 -1 -0.923879 0 -1 0 0.382684 -1.000000
0.555571 -1 -0.831469 0 -1 0 0.555571 -1.000000
0.707107 -1 -0.707106 0 -1 0 0.707107 -1.000000
0.83147 -1 -0.55557 0 -1 0 0.831470 -1.000000
0.92388 -1 -0.382683 0 -1 0 0.923880 -1.000000
0.980785 -1 -0.195089 0 -1 0 0.980785 -1.000000
1 -1 1e-06 0 -1 -0 1.000000 -1.000000
0.980785 -1 0.195091 0 -1 -0 0.980785 -1.000000
0.923879 -1 0.382684 0 -1 0 0.923879 -1.000000
0.831469 -1 0.555571 0 -1 0 0.831469 -1.000000
0.707106 -1 0.707108 0 -1 0 0.707106 -1.000000
0.555569 -1 0.83147 0 -1 0 0.555569 -1.000000
0.382682 -1 0.92388 0 -1 0 0.382682 -1.000000
3 0 1 2 
3 3 4 5 
3 6 7 8 
3 9 10 11 
3 12 13 14 
3 15 16 17 
3 18 19 20 
3 21 22 23 
3 24 25 26 
3 27 28 29 
3 30 31 32 
3 33 34 35 
3 36 37 38 
3 39 40 41 
3 42 43 44 
3 45 46 47 
3 48 49 50 
3 51 52 53 
3 54 55 56 
3 57 58 59 
3 60 61 62 
3 63 64 65 
3 66 67 68 
3 69 70 71 
3 72 73 74 
3 75 76 77 
3 78 79 80 
3 81 82 83 
3 84 85 86 
3 87 88 89 
3 90 91 92 
3 93 94 95 
3 96 97 98 
3 98 99 100 
3 100 101 102 
3 102 103 104 
3 104 105 106 
3 106 107 108 
3 108 109 110 
3 110 111 112 
3 112 113 114 
3 114 115 116 
3 116 117 118 
3 118 119 120 
3 120 121 122 
3 122 123 124 
3 124 125 126 
3 126 127 96 
3 96 98 100 
3 100 102 104 
3 104 106 108 
3 108 110 112 
3 112 114 116 
3 116 118 120 
3 120 122 124 
3 124 126 96 
3 96 100 104 
3 104 108 112 
3 112 116 120 
3 120 124 96 
3 96 104 112 
3 112 120 96 
