ply
format ascii 1.0
comment VCGLIB generated
element vertex 4
property float x
property float y
property float z
property float nx
property float ny
property float nz
property float texture_u
property float texture_v
element face 2
property list uchar int vertex_indices
end_header
-4.371139e-07 10 -9.999999 -1 -4.371139e-08 0 0.000000 0.000000
4.371139e-07 -10 -9.999999 -1 -4.371139e-08 0 1.000000 0.000000
4.371139e-07 -10 9.999999 -1 -4.371139e-08 0 1.000000 1.000000
-4.371139e-07 10 9.999999 -1 -4.371139e-08 0 0.000000 1.000000
3 0 1 2 
3 0 2 3 
